<svg version="1.0" xmlns="http://www.w3.org/2000/svg" viewBox="0 0 591 198" preserveAspectRatio="xMidYMid meet">
  <g transform="translate(0.000000,198.000000) scale(0.100000,-0.100000)" fill="currentColor" stroke="none">
    <path d="M180 1720 l0 -110 160 0 160 0 0 -740 0 -740 110 0 110 0 0 740 0
    740 140 0 140 0 0 110 0 110 -410 0 -410 0 0 -110z"/>
    <path d="M1130 985 l0 -845 275 0 275 0 0 105 0 105 -165 0 -165 0 0 340 0
    340 165 0 165 0 0 110 0 110 -165 0 -165 0 0 180 0 180 165 0 165 0 0 110 0
    110 -275 0 -275 0 0 -845z"/>
    <path d="M2006 1803 c-3 -16 -60 -386 -126 -823 -66 -437 -122 -805 -125 -817
    -5 -23 -4 -23 104 -23 l109 0 6 28 c3 15 19 131 36 257 17 127 33 245 36 263
    l6 32 123 0 c119 0 123 -1 128 -22 3 -13 22 -143 43 -290 l37 -268 109 0 c87
    0 108 3 108 14 0 8 -65 386 -145 839 -80 454 -145 828 -145 831 0 3 -67 6
    -149 6 l-149 0 -6 -27z m257 -830 l6 -33 -95 0 c-52 0 -94 2 -94 3 0 3 88 620
    91 636 1 3 20 -124 44 -284 24 -159 46 -305 48 -322z"/>
    <path d="M2690 985 l0 -845 110 0 110 0 1 678 c0 395 4 669 9 657 5 -11 52
    -301 105 -645 53 -344 98 -640 102 -658 l5 -32 103 0 103 0 6 27 c3 16 51 316
    106 668 55 352 102 645 104 650 3 6 5 -295 5 -667 l1 -678 110 0 110 0 0 845
    0 845 -197 -2 -197 -3 -71 -470 c-40 -258 -74 -476 -76 -483 -2 -6 -35 194
    -73 445 -37 252 -71 470 -73 486 l-5 27 -199 0 -199 0 0 -845z"/>
    <path d="M3900 990 l0 -840 110 0 110 0 0 840 0 840 -110 0 -110 0 0 -840z"/>
    <path d="M4250 985 l0 -845 110 0 110 0 0 445 0 445 165 0 165 0 0 110 0 110
    -165 0 -165 0 0 180 0 180 165 0 165 0 0 110 0 110 -275 0 -275 0 0 -845z"/>
    <path d="M4935 1818 c2 -7 67 -235 145 -505 l140 -493 0 -340 0 -340 115 0
    115 0 0 338 0 338 150 484 c83 267 153 495 156 508 6 22 5 22 -108 22 l-114 0
    -53 -167 c-29 -93 -73 -233 -98 -313 l-46 -145 -74 260 c-40 143 -80 284 -88
    313 l-16 52 -114 0 c-87 0 -113 -3 -110 -12z"/>
  </g>
</svg>





